<svg xmlns="http://www.w3.org/2000/svg" viewBox="0 0 33.7 33.7"><defs><style>.cls-1{fill:#fff;}</style></defs><title>youtube</title><g id="Layer_2" data-name="Layer 2"><g id="Layer_1-2" data-name="Layer 1"><polygon class="cls-1" points="14.67 19.61 20.37 16.63 14.67 13.64 14.67 19.61"/><path class="cls-1" d="M16.85,0A16.85,16.85,0,1,0,33.7,16.85,16.84,16.84,0,0,0,16.85,0ZM27.4,17.65a32.53,32.53,0,0,1-.21,3.44,4.52,4.52,0,0,1-.84,2.11,3,3,0,0,1-2.11.9c-2.95.22-7.39.23-7.39.23s-5.49,0-7.18-.22a3.55,3.55,0,0,1-2.32-.91,4.52,4.52,0,0,1-.84-2.11,32.53,32.53,0,0,1-.21-3.44V16a32.53,32.53,0,0,1,.21-3.44,4.56,4.56,0,0,1,.84-2.11,3,3,0,0,1,2.11-.9c3-.21,7.39-.21,7.39-.21h0s4.43,0,7.38.21a3,3,0,0,1,2.11.9,4.56,4.56,0,0,1,.84,2.11A32.53,32.53,0,0,1,27.4,16Z"/></g></g></svg>