<svg xmlns="http://www.w3.org/2000/svg" viewBox="0 0 33.7 33.7"><defs><style>.cls-1{fill:#fff;}</style></defs><title>IG</title><g id="Layer_2" data-name="Layer 2"><g id="Layer_1-2" data-name="Layer 1"><path class="cls-1" d="M16.87,13.71a3.17,3.17,0,1,0,3.18,3.18A3.13,3.13,0,0,0,16.87,13.71Z"/><path class="cls-1" d="M21,9.14q-4.05-.09-8.12,0a3.4,3.4,0,0,0-3.69,3.67q-.09,4.09,0,8.17a3.43,3.43,0,0,0,3.64,3.65c1.36,0,2.74,0,4.11,0h0c1.4,0,2.8,0,4.2,0a3.46,3.46,0,0,0,2.85-1.4A3.75,3.75,0,0,0,24.62,21c0-2.72.06-5.44,0-8.17A3.41,3.41,0,0,0,21,9.14ZM16.84,21.78a4.91,4.91,0,1,1,4.94-4.87A4.88,4.88,0,0,1,16.84,21.78ZM22,12.93a1.18,1.18,0,0,1-1.16-1.15A1.14,1.14,0,0,1,22,10.64a1.11,1.11,0,0,1,1.15,1.13A1.15,1.15,0,0,1,22,12.93Z"/><path class="cls-1" d="M16.85,0A16.85,16.85,0,1,0,33.7,16.85,16.84,16.84,0,0,0,16.85,0Zm9.47,21.36a5,5,0,0,1-5,5c-3,.08-6,.07-9,0a5,5,0,0,1-4.85-4.12c-.1-.5-.15-1-.22-1.51V13.06c0-.22.07-.44.09-.66a5.07,5.07,0,0,1,4.1-4.85c.51-.11,1-.16,1.54-.23H20.7c.21,0,.41.08.61.09a5.1,5.1,0,0,1,5,5Q26.44,16.9,26.32,21.36Z"/></g></g></svg>